<?xml version="1.0" encoding="UTF-8"?>
<svg id="Layer_2" data-name="Layer 2" xmlns="http://www.w3.org/2000/svg" xmlns:xlink="http://www.w3.org/1999/xlink" viewBox="0 0 500 500">
  <defs>
    <style>
      .cls-1 {
        fill: #fff;
      }

      .cls-2 {
        fill: url(#linear-gradient);
      }
    </style>
    <linearGradient id="linear-gradient" x1="250" y1="500" x2="250" y2="0" gradientUnits="userSpaceOnUse">
      <stop offset="0" stop-color="#243a75"/>
      <stop offset="1" stop-color="#3e60ac"/>
    </linearGradient>
  </defs>
  <g id="Layer_1-2" data-name="Layer 1">
    <g>
      <rect class="cls-2" x="0" y="0" width="500" height="500" rx="250" ry="250"/>
      <path class="cls-1" d="M373.84,139.28l-21.55,34.52c-5.45,8.73-15.02,14.04-25.32,14.04h-70.66c-9.84,0-19.05,4.85-24.61,12.96l-13.88,20.24c-2.58,3.76.11,8.87,4.67,8.87h78.23c5.94,0,9.57,6.52,6.44,11.56l-24.98,40.36c-3.98,6.42-10.99,10.3-18.54,10.35-18.65.13-77.19,35.69-129.05,78.71-5.11,4.24-12.19-2-8.62-7.6l68.97-108.08c6.53-10.23-.78-23.65-12.92-23.71l-29.97-.15c-5.96-.03-9.55-6.61-6.36-11.64l34.51-54.37c14.87-23.42,40.67-37.61,68.41-37.63l118.79-.06c5.95,0,9.58,6.54,6.43,11.59Z"/>
    </g>
  </g>
</svg>