<?xml version="1.0" encoding="UTF-8"?>
<svg id="Layer_2" data-name="Layer 2" xmlns="http://www.w3.org/2000/svg" xmlns:xlink="http://www.w3.org/1999/xlink" viewBox="0 0 1081 1081">
  <defs>
    <style>
      .cls-1 {
        fill: url(#linear-gradient-2);
      }

      .cls-2 {
        fill: #243a75;
      }

      .cls-3 {
        fill: #fff;
        stroke: #000;
        stroke-miterlimit: 10;
      }

      .cls-4 {
        fill: url(#linear-gradient-4);
      }

      .cls-5 {
        fill: url(#linear-gradient-3);
      }

      .cls-6 {
        fill: url(#linear-gradient-5);
      }

      .cls-7 {
        fill: url(#linear-gradient-8);
      }

      .cls-8 {
        fill: url(#linear-gradient-7);
      }

      .cls-9 {
        fill: url(#linear-gradient-6);
      }

      .cls-10 {
        fill: url(#linear-gradient);
      }
    </style>
    <linearGradient id="linear-gradient" x1="231.56" y1="629.6" x2="231.56" y2="451.4" gradientUnits="userSpaceOnUse">
      <stop offset="0" stop-color="#243a75"/>
      <stop offset="1" stop-color="#3e60ac"/>
    </linearGradient>
    <linearGradient id="linear-gradient-2" x1="402.61" y1="572.1" x2="402.61" y2="459.88" xlink:href="#linear-gradient"/>
    <linearGradient id="linear-gradient-3" x1="464.98" y1="572.1" x2="464.98" y2="450.58" xlink:href="#linear-gradient"/>
    <linearGradient id="linear-gradient-4" x1="536.08" y1="572.1" x2="536.08" y2="482.97" xlink:href="#linear-gradient"/>
    <linearGradient id="linear-gradient-5" x1="635.8" y1="572.1" x2="635.8" y2="485.53" xlink:href="#linear-gradient"/>
    <linearGradient id="linear-gradient-6" x1="729.67" y1="574.51" x2="729.67" y2="482.82" xlink:href="#linear-gradient"/>
    <linearGradient id="linear-gradient-7" x1="813.84" y1="572.1" x2="813.84" y2="485.53" xlink:href="#linear-gradient"/>
    <linearGradient id="linear-gradient-8" x1="895.29" y1="574.51" x2="895.29" y2="482.97" xlink:href="#linear-gradient"/>
  </defs>
  <g id="Layer_1-2" data-name="Layer 1">
    <g>
      <rect class="cls-3" x=".5" y=".5" width="1080" height="1080"/>
      <g>
        <path class="cls-10" d="M321.77,459.84l-15.7,25.15c-3.97,6.36-10.94,10.23-18.44,10.23h-51.47c-7.17,0-13.87,3.53-17.93,9.44l-10.11,14.74c-1.88,2.74.08,6.46,3.4,6.46h56.99c4.32,0,6.97,4.75,4.69,8.42l-18.19,29.4c-2.9,4.68-8,7.5-13.51,7.54-13.59.1-56.23,26-94.01,57.34-3.72,3.09-8.88-1.46-6.28-5.54l50.24-78.73c4.76-7.46-.57-17.23-9.41-17.27l-21.83-.11c-4.34-.02-6.96-4.81-4.63-8.48l25.14-39.6c10.83-17.06,29.63-27.4,49.84-27.41l86.54-.04c4.33,0,6.98,4.76,4.68,8.44Z"/>
        <g>
          <g>
            <path class="cls-2" d="M382.45,598.01l-7.71,14.85v8.45h-3.82v-8.45l-7.74-14.85h4.26l5.4,11.43,5.4-11.43h4.22Z"/>
            <path class="cls-2" d="M388.75,620.41c-1.41-.79-2.51-1.91-3.32-3.35s-1.21-3.11-1.21-5.01.41-3.54,1.24-4.99c.83-1.45,1.95-2.57,3.38-3.35,1.43-.78,3.03-1.17,4.79-1.17s3.36.39,4.79,1.17c1.43.78,2.56,1.9,3.39,3.35.83,1.45,1.24,3.12,1.24,4.99s-.42,3.54-1.27,4.99c-.85,1.45-2.01,2.58-3.47,3.37-1.46.79-3.08,1.19-4.84,1.19s-3.32-.4-4.73-1.19ZM396.24,617.58c.86-.47,1.56-1.17,2.09-2.11.54-.94.8-2.08.8-3.42s-.26-2.47-.77-3.4c-.51-.93-1.2-1.63-2.04-2.1-.85-.47-1.77-.7-2.75-.7s-1.89.23-2.73.7c-.84.47-1.5,1.17-1.99,2.1-.49.93-.74,2.06-.74,3.4,0,1.99.51,3.52,1.53,4.61,1.02,1.08,2.3,1.63,3.84,1.63.98,0,1.9-.23,2.77-.7Z"/>
            <path class="cls-2" d="M423.57,602.84v18.47h-3.82v-2.18c-.6.76-1.39,1.36-2.36,1.79-.97.44-2.01.65-3.1.65-1.45,0-2.75-.3-3.9-.9-1.15-.6-2.06-1.5-2.71-2.68-.66-1.18-.99-2.61-.99-4.29v-10.86h3.79v10.29c0,1.65.41,2.92,1.24,3.8.83.88,1.95,1.32,3.39,1.32s2.56-.44,3.4-1.32c.84-.88,1.26-2.15,1.26-3.8v-10.29h3.82Z"/>
            <path class="cls-2" d="M434.64,603.32c.93-.52,2.03-.79,3.3-.79v3.95h-.97c-1.5,0-2.63.38-3.4,1.14-.77.76-1.16,2.08-1.16,3.95v9.72h-3.82v-18.47h3.82v2.68c.56-.94,1.3-1.67,2.23-2.19Z"/>
            <path class="cls-2" d="M465.23,598.01v3.12h-6.2v20.18h-3.82v-20.18h-6.23v-3.12h16.26Z"/>
            <path class="cls-2" d="M475.13,603.32c.93-.52,2.03-.79,3.3-.79v3.95h-.97c-1.5,0-2.63.38-3.4,1.14-.77.76-1.16,2.08-1.16,3.95v9.72h-3.82v-18.47h3.82v2.68c.56-.94,1.3-1.67,2.23-2.19Z"/>
            <path class="cls-2" d="M498.68,602.84v18.47h-3.82v-2.18c-.6.76-1.39,1.36-2.36,1.79-.97.44-2.01.65-3.1.65-1.45,0-2.75-.3-3.9-.9-1.15-.6-2.06-1.5-2.71-2.68-.66-1.18-.99-2.61-.99-4.29v-10.86h3.79v10.29c0,1.65.41,2.92,1.24,3.8.83.88,1.95,1.32,3.39,1.32s2.56-.44,3.4-1.32c.84-.88,1.26-2.15,1.26-3.8v-10.29h3.82Z"/>
            <path class="cls-2" d="M506.5,620.82c-1.15-.52-2.06-1.24-2.73-2.15-.67-.9-1.03-1.92-1.07-3.03h3.95c.07.78.44,1.44,1.12,1.96.68.53,1.54.79,2.56.79s1.9-.21,2.5-.62.89-.94.89-1.59c0-.69-.33-1.21-.99-1.54-.66-.34-1.7-.7-3.13-1.11-1.39-.38-2.51-.75-3.38-1.11-.87-.36-1.63-.9-2.26-1.64s-.96-1.71-.96-2.92c0-.98.29-1.88.87-2.7.58-.82,1.41-1.46,2.5-1.93,1.08-.47,2.33-.7,3.74-.7,2.1,0,3.79.53,5.08,1.59,1.28,1.06,1.97,2.51,2.06,4.34h-3.82c-.07-.83-.4-1.49-1.01-1.98-.6-.49-1.42-.74-2.45-.74s-1.78.19-2.31.57c-.54.38-.8.88-.8,1.51,0,.49.18.9.54,1.24.36.34.79.6,1.31.79.51.19,1.27.43,2.28.72,1.34.36,2.44.72,3.3,1.09.86.37,1.6.91,2.23,1.63.63.72.95,1.66.97,2.85,0,1.05-.29,1.99-.87,2.82-.58.83-1.4,1.47-2.46,1.94-1.06.47-2.31.7-3.74.7s-2.75-.26-3.9-.79Z"/>
            <path class="cls-2" d="M526.06,605.95v10.22c0,.69.16,1.19.49,1.49s.88.45,1.66.45h2.35v3.18h-3.02c-1.72,0-3.04-.4-3.95-1.21-.92-.8-1.37-2.11-1.37-3.92v-10.22h-2.18v-3.12h2.18v-4.59h3.85v4.59h4.49v3.12h-4.49Z"/>
            <path class="cls-2" d="M533.95,607.06c.77-1.43,1.82-2.54,3.15-3.33,1.33-.79,2.8-1.19,4.41-1.19,1.45,0,2.72.28,3.8.85,1.08.57,1.95,1.28,2.6,2.13v-2.68h3.85v18.47h-3.85v-2.75c-.65.87-1.53,1.6-2.65,2.18-1.12.58-2.39.87-3.82.87-1.59,0-3.04-.41-4.36-1.22-1.32-.82-2.36-1.96-3.13-3.42-.77-1.46-1.16-3.12-1.16-4.98s.38-3.5,1.16-4.93ZM547.12,608.73c-.53-.94-1.21-1.65-2.06-2.15-.85-.49-1.77-.74-2.75-.74s-1.9.24-2.75.72c-.85.48-1.54,1.18-2.06,2.11-.53.93-.79,2.03-.79,3.3s.26,2.39.79,3.35c.52.96,1.22,1.69,2.08,2.2.86.5,1.77.75,2.73.75s1.9-.25,2.75-.74c.85-.49,1.54-1.21,2.06-2.16.52-.95.79-2.06.79-3.33s-.26-2.38-.79-3.32Z"/>
            <path class="cls-2" d="M563.27,603.39c1.13-.57,2.39-.85,3.77-.85,1.63,0,3.11.39,4.42,1.17,1.32.78,2.36,1.89,3.12,3.33s1.14,3.09,1.14,4.94-.38,3.51-1.14,4.98c-.76,1.46-1.8,2.6-3.13,3.42s-2.8,1.22-4.41,1.22c-1.43,0-2.7-.28-3.8-.84-1.11-.56-1.98-1.27-2.63-2.15v2.68h-3.82v-24.8h3.82v9.08c.65-.89,1.54-1.63,2.66-2.2ZM571.05,608.68c-.52-.93-1.22-1.63-2.08-2.11-.86-.48-1.78-.72-2.76-.72s-1.87.25-2.73.74c-.86.49-1.55,1.21-2.08,2.15-.52.94-.79,2.04-.79,3.32s.26,2.39.79,3.33c.52.95,1.22,1.67,2.08,2.16s1.77.74,2.73.74,1.9-.25,2.76-.75c.86-.5,1.55-1.23,2.08-2.2.52-.96.79-2.08.79-3.35s-.26-2.37-.79-3.3Z"/>
            <path class="cls-2" d="M583.33,596.5v24.8h-3.82v-24.8h3.82Z"/>
            <path class="cls-2" d="M605.15,613.49h-14.11c.11,1.47.66,2.66,1.64,3.55.98.89,2.19,1.34,3.62,1.34,2.06,0,3.51-.86,4.36-2.58h4.12c-.56,1.7-1.57,3.09-3.03,4.17-1.46,1.08-3.28,1.63-5.45,1.63-1.76,0-3.35-.4-4.74-1.19-1.4-.79-2.49-1.91-3.28-3.35-.79-1.44-1.19-3.11-1.19-5.01s.39-3.57,1.16-5.01c.77-1.44,1.85-2.55,3.25-3.33,1.4-.78,3-1.17,4.81-1.17s3.3.38,4.66,1.14c1.36.76,2.42,1.83,3.18,3.2.76,1.37,1.14,2.96,1.14,4.74,0,.69-.05,1.32-.13,1.88ZM601.3,610.41c-.02-1.41-.52-2.54-1.51-3.39-.98-.85-2.2-1.27-3.65-1.27-1.32,0-2.45.42-3.39,1.26-.94.84-1.5,1.97-1.68,3.4h10.22Z"/>
            <path class="cls-2" d="M631.8,616.54h-9.75l-1.68,4.76h-3.99l8.35-23.33h4.42l8.35,23.33h-4.02l-1.68-4.76ZM630.72,613.43l-3.79-10.83-3.82,10.83h7.61Z"/>
            <path class="cls-2" d="M641,607.04c.77-1.44,1.84-2.55,3.2-3.33,1.36-.78,2.93-1.17,4.69-1.17,2.23,0,4.08.53,5.55,1.59,1.46,1.06,2.45,2.58,2.97,4.54h-4.12c-.33-.92-.87-1.63-1.61-2.15s-1.66-.77-2.78-.77c-1.56,0-2.81.55-3.74,1.66-.93,1.11-1.39,2.65-1.39,4.64s.46,3.54,1.39,4.66c.93,1.12,2.17,1.68,3.74,1.68,2.21,0,3.67-.97,4.39-2.92h4.12c-.54,1.88-1.54,3.37-3.02,4.47s-3.31,1.66-5.5,1.66c-1.77,0-3.33-.4-4.69-1.19-1.36-.79-2.43-1.91-3.2-3.35-.77-1.44-1.16-3.11-1.16-5.01s.39-3.57,1.16-5.01Z"/>
            <path class="cls-2" d="M661.1,607.04c.77-1.44,1.84-2.55,3.2-3.33,1.36-.78,2.93-1.17,4.69-1.17,2.23,0,4.08.53,5.55,1.59,1.46,1.06,2.45,2.58,2.97,4.54h-4.12c-.33-.92-.87-1.63-1.61-2.15s-1.66-.77-2.78-.77c-1.56,0-2.81.55-3.74,1.66-.93,1.11-1.39,2.65-1.39,4.64s.46,3.54,1.39,4.66c.93,1.12,2.17,1.68,3.74,1.68,2.21,0,3.67-.97,4.39-2.92h4.12c-.54,1.88-1.54,3.37-3.02,4.47s-3.31,1.66-5.5,1.66c-1.77,0-3.33-.4-4.69-1.19-1.36-.79-2.43-1.91-3.2-3.35-.77-1.44-1.16-3.11-1.16-5.01s.39-3.57,1.16-5.01Z"/>
            <path class="cls-2" d="M684.61,620.41c-1.41-.79-2.51-1.91-3.32-3.35-.8-1.44-1.21-3.11-1.21-5.01s.41-3.54,1.24-4.99c.83-1.45,1.96-2.57,3.39-3.35,1.43-.78,3.03-1.17,4.79-1.17s3.36.39,4.79,1.17c1.43.78,2.56,1.9,3.38,3.35.83,1.45,1.24,3.12,1.24,4.99s-.43,3.54-1.27,4.99c-.85,1.45-2.01,2.58-3.47,3.37-1.46.79-3.08,1.19-4.84,1.19s-3.32-.4-4.73-1.19ZM692.11,617.58c.86-.47,1.56-1.17,2.09-2.11.54-.94.8-2.08.8-3.42s-.26-2.47-.77-3.4c-.51-.93-1.2-1.63-2.04-2.1-.85-.47-1.76-.7-2.75-.7s-1.89.23-2.73.7c-.84.47-1.5,1.17-1.99,2.1-.49.93-.74,2.06-.74,3.4,0,1.99.51,3.52,1.53,4.61,1.02,1.08,2.29,1.63,3.84,1.63.98,0,1.9-.23,2.76-.7Z"/>
            <path class="cls-2" d="M719.44,602.84v18.47h-3.82v-2.18c-.6.76-1.39,1.36-2.36,1.79-.97.44-2.01.65-3.1.65-1.45,0-2.75-.3-3.91-.9-1.15-.6-2.06-1.5-2.71-2.68-.66-1.18-.99-2.61-.99-4.29v-10.86h3.79v10.29c0,1.65.41,2.92,1.24,3.8.83.88,1.95,1.32,3.38,1.32s2.56-.44,3.4-1.32c.84-.88,1.26-2.15,1.26-3.8v-10.29h3.82Z"/>
            <path class="cls-2" d="M737.69,603.44c1.15.6,2.05,1.5,2.7,2.68s.97,2.61.97,4.29v10.89h-3.79v-10.32c0-1.65-.41-2.92-1.24-3.8-.83-.88-1.96-1.32-3.38-1.32s-2.56.44-3.4,1.32c-.84.88-1.26,2.15-1.26,3.8v10.32h-3.82v-18.47h3.82v2.11c.63-.76,1.42-1.35,2.4-1.78.97-.42,2.01-.64,3.1-.64,1.45,0,2.75.3,3.91.9Z"/>
            <path class="cls-2" d="M750.67,605.95v10.22c0,.69.16,1.19.49,1.49.32.3.88.45,1.66.45h2.35v3.18h-3.02c-1.72,0-3.04-.4-3.95-1.21-.92-.8-1.37-2.11-1.37-3.92v-10.22h-2.18v-3.12h2.18v-4.59h3.85v4.59h4.49v3.12h-4.49Z"/>
            <path class="cls-2" d="M758.88,599.69c-.47-.47-.7-1.05-.7-1.74s.23-1.27.7-1.74c.47-.47,1.05-.7,1.74-.7s1.24.23,1.71.7c.47.47.7,1.05.7,1.74s-.23,1.27-.7,1.74c-.47.47-1.04.7-1.71.7s-1.27-.23-1.74-.7ZM762.5,602.84v18.47h-3.82v-18.47h3.82Z"/>
            <path class="cls-2" d="M780.75,603.44c1.15.6,2.05,1.5,2.7,2.68.65,1.18.97,2.61.97,4.29v10.89h-3.79v-10.32c0-1.65-.41-2.92-1.24-3.8-.83-.88-1.96-1.32-3.38-1.32s-2.56.44-3.4,1.32c-.84.88-1.26,2.15-1.26,3.8v10.32h-3.82v-18.47h3.82v2.11c.63-.76,1.42-1.35,2.4-1.78.97-.42,2.01-.64,3.1-.64,1.45,0,2.75.3,3.91.9Z"/>
            <path class="cls-2" d="M800.53,603.39c1.11.57,1.97,1.28,2.6,2.13v-2.68h3.85v18.77c0,1.7-.36,3.21-1.07,4.54s-1.75,2.37-3.1,3.13c-1.35.76-2.97,1.14-4.84,1.14-2.5,0-4.58-.59-6.23-1.76-1.65-1.17-2.59-2.76-2.82-4.78h3.79c.29.96.91,1.74,1.86,2.33.95.59,2.08.89,3.4.89,1.54,0,2.79-.47,3.74-1.41.95-.94,1.42-2.3,1.42-4.09v-3.08c-.65.87-1.53,1.6-2.63,2.2-1.11.59-2.36.89-3.77.89-1.61,0-3.08-.41-4.41-1.22-1.33-.82-2.38-1.96-3.15-3.42-.77-1.46-1.16-3.12-1.16-4.98s.39-3.5,1.16-4.93c.77-1.43,1.82-2.54,3.15-3.33,1.33-.79,2.8-1.19,4.41-1.19,1.43,0,2.7.28,3.8.85ZM802.34,608.73c-.52-.94-1.21-1.65-2.06-2.15-.85-.49-1.77-.74-2.75-.74s-1.9.24-2.75.72c-.85.48-1.54,1.18-2.06,2.11-.53.93-.79,2.03-.79,3.3s.26,2.39.79,3.35c.52.96,1.22,1.69,2.08,2.2.86.5,1.77.75,2.73.75s1.9-.25,2.75-.74,1.54-1.21,2.06-2.16c.52-.95.79-2.06.79-3.33s-.26-2.38-.79-3.32Z"/>
            <path class="cls-2" d="M836.17,608.3c-.56,1.05-1.45,1.9-2.68,2.56-1.23.66-2.81.99-4.73.99h-4.22v9.45h-3.82v-23.29h8.04c1.79,0,3.3.31,4.54.92,1.24.61,2.17,1.45,2.78,2.5.61,1.05.92,2.22.92,3.52,0,1.18-.28,2.3-.84,3.35ZM832.01,607.75c.71-.66,1.07-1.59,1.07-2.8,0-2.55-1.44-3.82-4.32-3.82h-4.22v7.61h4.22c1.45,0,2.54-.33,3.25-.99Z"/>
            <path class="cls-2" d="M840.54,607.06c.77-1.43,1.82-2.54,3.15-3.33,1.33-.79,2.8-1.19,4.41-1.19,1.45,0,2.72.28,3.8.85,1.08.57,1.95,1.28,2.6,2.13v-2.68h3.85v18.47h-3.85v-2.75c-.65.87-1.53,1.6-2.65,2.18-1.12.58-2.39.87-3.82.87-1.59,0-3.04-.41-4.36-1.22s-2.36-1.96-3.13-3.42c-.77-1.46-1.16-3.12-1.16-4.98s.39-3.5,1.16-4.93ZM853.71,608.73c-.52-.94-1.21-1.65-2.06-2.15-.85-.49-1.77-.74-2.75-.74s-1.9.24-2.75.72c-.85.48-1.54,1.18-2.06,2.11-.53.93-.79,2.03-.79,3.3s.26,2.39.79,3.35c.52.96,1.22,1.69,2.08,2.2.86.5,1.77.75,2.73.75s1.9-.25,2.75-.74,1.54-1.21,2.06-2.16c.52-.95.79-2.06.79-3.33s-.26-2.38-.79-3.32Z"/>
            <path class="cls-2" d="M869.43,603.32c.93-.52,2.03-.79,3.3-.79v3.95h-.97c-1.5,0-2.63.38-3.4,1.14-.77.76-1.16,2.08-1.16,3.95v9.72h-3.82v-18.47h3.82v2.68c.56-.94,1.3-1.67,2.23-2.19Z"/>
            <path class="cls-2" d="M880.71,605.95v10.22c0,.69.16,1.19.49,1.49.32.3.88.45,1.66.45h2.35v3.18h-3.02c-1.72,0-3.04-.4-3.95-1.21-.92-.8-1.37-2.11-1.37-3.92v-10.22h-2.18v-3.12h2.18v-4.59h3.85v4.59h4.49v3.12h-4.49Z"/>
            <path class="cls-2" d="M901.94,603.44c1.15.6,2.05,1.5,2.7,2.68s.97,2.61.97,4.29v10.89h-3.79v-10.32c0-1.65-.41-2.92-1.24-3.8-.83-.88-1.96-1.32-3.38-1.32s-2.56.44-3.4,1.32c-.84.88-1.26,2.15-1.26,3.8v10.32h-3.82v-18.47h3.82v2.11c.63-.76,1.42-1.35,2.4-1.78.97-.42,2.01-.64,3.1-.64,1.45,0,2.75.3,3.91.9Z"/>
            <path class="cls-2" d="M927.26,613.49h-14.11c.11,1.47.66,2.66,1.64,3.55.98.89,2.19,1.34,3.62,1.34,2.06,0,3.51-.86,4.36-2.58h4.12c-.56,1.7-1.57,3.09-3.03,4.17-1.46,1.08-3.28,1.63-5.45,1.63-1.76,0-3.35-.4-4.74-1.19-1.4-.79-2.49-1.91-3.28-3.35-.79-1.44-1.19-3.11-1.19-5.01s.39-3.57,1.16-5.01,1.85-2.55,3.25-3.33c1.4-.78,3-1.17,4.81-1.17s3.3.38,4.66,1.14c1.36.76,2.42,1.83,3.18,3.2.76,1.37,1.14,2.96,1.14,4.74,0,.69-.05,1.32-.13,1.88ZM923.41,610.41c-.02-1.41-.52-2.54-1.51-3.39-.98-.85-2.2-1.27-3.65-1.27-1.32,0-2.45.42-3.39,1.26-.94.84-1.5,1.97-1.68,3.4h10.22Z"/>
            <path class="cls-2" d="M937.2,603.32c.93-.52,2.03-.79,3.3-.79v3.95h-.97c-1.5,0-2.63.38-3.4,1.14-.77.76-1.16,2.08-1.16,3.95v9.72h-3.82v-18.47h3.82v2.68c.56-.94,1.3-1.67,2.23-2.19Z"/>
          </g>
          <g>
            <path class="cls-1" d="M384.18,479.92v41.04c8.34-11.22,20.84-16.51,32.06-16.67h16.35v19.24h-13.31c-16.03,0-35.11,7.05-35.11,28.54v20.04h-21v-112.22h78.88v20.04h-57.88Z"/>
            <path class="cls-5" d="M453.44,462.28c0-6.41,5.13-11.7,11.54-11.7s11.54,5.29,11.54,11.7-5.13,11.54-11.54,11.54-11.54-5.29-11.54-11.54ZM454.88,572.1v-86.57h20.2v86.57h-20.2Z"/>
            <path class="cls-4" d="M578,518.88v53.23h-20.04v-49.7c0-13.95-9.78-21.48-20.36-21.48-11.7,0-23.25,9.78-23.25,26.77v44.41h-20.2v-86.73h20.2v17.96c6.57-12.67,17.96-20.36,30.3-20.36,17.47,0,33.35,12.02,33.35,35.91Z"/>
            <path class="cls-6" d="M682.54,485.53l-23.73,86.57h-28.86c-14.75,0-23.41-8.98-25.81-20.04l-15.07-66.53h20.68l12.83,56.43c1.44,6.25,6.41,11.06,12.83,11.06h7.7l18.6-67.5h20.84Z"/>
            <path class="cls-9" d="M769.11,541.96c0,21.48-13.47,32.55-37.03,32.55-25.97,0-41.84-19.4-41.84-45.69,0-31.1,21.32-44.41,40.88-45.85,23.25-1.6,36.39,10.1,36.39,26.13,0,9.46-2.56,16.99-15.39,22.61l-36.23,15.39c3.69,5.61,9.14,8.66,15.39,8.66,9.46,0,16.83-4.01,16.83-13.79h21ZM711.4,532.5l29.82-12.83c3.37-1.44,6.09-3.05,6.09-7.22,0-6.89-6.73-11.38-14.43-11.38-10.1,0-21.64,7.7-21.64,27.74,0,1.28,0,2.41.16,3.69Z"/>
            <path class="cls-8" d="M843.34,485.53v19.08h-24.53c-10.9,0-14.27,4.49-14.27,14.27v53.23h-20.2v-59.64c0-16.03,10.9-26.93,26.93-26.93h32.06Z"/>
            <path class="cls-7" d="M940.5,528.66v43.45h-20.2v-14.75c-4.49,8.98-14.91,17.15-27.74,17.15-25.01,0-42.49-18.28-42.49-45.85,0-25.65,17.32-45.69,44.73-45.69s45.69,18.92,45.69,45.69ZM920.3,528.66c0-15.23-10.26-25.65-25.49-25.65-16.35,0-23.73,12.83-23.73,25.65s7.37,25.81,23.73,25.81c15.23,0,25.49-12.34,25.49-25.81Z"/>
          </g>
        </g>
      </g>
    </g>
  </g>
</svg>